<?xml version="1.0" standalone="no"?>
<!DOCTYPE svg PUBLIC "-//W3C//DTD SVG 20010904//EN"
 "http://www.w3.org/TR/2001/REC-SVG-20010904/DTD/svg10.dtd">
<svg version="1.0" xmlns="http://www.w3.org/2000/svg"
 width="4000.000000pt" height="1781.000000pt" viewBox="0 0 4000.000000 1781.000000"
 preserveAspectRatio="xMidYMid meet">

<g transform="translate(0.000000,1781.000000) scale(0.100000,-0.100000)"
fill="#000000" stroke="none">
<path d="M36895 13776 c-170 -39 -305 -128 -401 -262 -177 -248 -177 -560 1
-809 80 -113 189 -192 330 -241 71 -25 94 -28 205 -28 111 0 134 3 205 28 187
65 323 189 404 368 141 309 23 685 -268 863 -132 80 -333 114 -476 81z m325
-100 c190 -66 329 -220 380 -422 77 -301 -97 -618 -392 -715 -58 -19 -94 -24
-178 -24 -84 0 -120 5 -178 24 -195 64 -340 222 -392 427 -83 323 120 655 445
730 88 20 224 12 315 -20z"/>
<path d="M36560 13285 l0 -45 55 0 55 0 0 -180 0 -180 55 0 55 0 0 180 0 180
55 0 55 0 0 45 0 45 -165 0 -165 0 0 -45z"/>
<path d="M37000 13105 l0 -225 40 0 40 0 1 178 1 177 33 -105 c19 -58 43 -138
55 -178 l21 -73 37 3 36 3 52 168 c29 93 55 171 58 175 3 3 6 -74 6 -171 l0
-177 50 0 50 0 0 225 0 226 -82 -3 -81 -3 -38 -124 c-21 -68 -40 -125 -42
-127 -2 -2 -21 54 -42 126 l-38 130 -79 0 -78 0 0 -225z"/>
<path d="M7660 13734 c-1418 -99 -2669 -613 -3720 -1528 -140 -122 -435 -414
-555 -551 -773 -879 -1276 -1938 -1459 -3075 -87 -539 -101 -1121 -40 -1670
197 -1780 1187 -3399 2694 -4407 255 -170 564 -345 810 -458 69 -32 148 -68
175 -81 28 -12 104 -44 170 -69 577 -224 1081 -345 1710 -412 243 -26 935 -26
1180 0 1053 111 1972 434 2820 992 457 300 796 589 1202 1026 87 94 311 372
414 514 576 794 960 1739 1098 2700 49 339 55 441 55 885 0 521 -21 757 -110
1200 -484 2430 -2408 4341 -4858 4825 -415 82 -668 106 -1146 110 -212 1 -410
1 -440 -1z m2735 -2384 c725 -45 1396 -280 1977 -691 257 -182 561 -469 754
-710 406 -506 674 -1103 778 -1729 39 -236 49 -364 49 -615 0 -251 -10 -379
-49 -615 -197 -1188 -968 -2218 -2059 -2750 -244 -119 -343 -154 -695 -246
-363 -95 -493 -118 -777 -135 -742 -45 -1521 151 -2173 546 -449 272 -881 686
-1174 1124 -344 515 -552 1098 -618 1731 -15 147 -15 541 1 690 64 631 273
1216 617 1731 242 362 595 725 952 978 702 497 1565 744 2417 691z m2860
-6963 l-74 -123 -3993 -1022 c-2196 -562 -4000 -1022 -4008 -1022 -15 1 -250
118 -240 120 3 0 1886 488 4185 1085 2299 596 4185 1084 4192 1084 7 1 -21
-54 -62 -122z m-422 -605 c-15 -21 -59 -79 -97 -128 l-68 -90 -3122 -814
c-1716 -447 -3202 -834 -3301 -860 l-181 -47 -179 52 -180 52 40 12 c79 24
7090 1860 7103 1860 9 1 3 -14 -15 -37z m-830 -853 c-92 -77 -175 -144 -183
-147 -8 -4 -1048 -281 -2310 -617 l-2295 -611 -228 37 c-126 21 -231 39 -233
41 -4 4 5379 1435 5404 1437 8 1 -62 -62 -155 -140z"/>
<path d="M8860 10023 c-319 -23 -630 -107 -915 -248 -485 -239 -868 -620
-1108 -1100 -384 -771 -325 -1696 154 -2409 302 -450 730 -779 1242 -955 236
-81 448 -119 712 -128 521 -17 1006 120 1436 405 374 249 654 570 850 977 248
515 303 1087 158 1652 -103 403 -337 805 -642 1106 -495 488 -1201 750 -1887
700z m739 -248 c689 -111 1297 -556 1615 -1183 154 -304 223 -577 233 -922 9
-282 -21 -492 -107 -752 -262 -795 -956 -1372 -1795 -1494 -162 -24 -458 -24
-620 0 -839 122 -1533 699 -1795 1494 -86 260 -116 470 -107 752 6 200 22 313
66 486 241 923 1068 1596 2021 1643 155 7 352 -2 489 -24z"/>
<path d="M17265 12924 c-284 -26 -401 -48 -670 -126 -292 -84 -743 -251 -738
-274 0 -5 125 -391 278 -859 152 -467 281 -864 286 -882 l10 -31 202 97 c210
102 259 120 442 170 274 74 540 100 683 66 456 -108 545 -706 141 -946 -36
-21 -105 -53 -155 -69 -144 -49 -298 -60 -855 -60 l-476 0 -6 -422 c-4 -232
-7 -643 -7 -913 l0 -492 232 -8 c127 -4 326 -6 442 -5 310 3 603 -14 696 -40
213 -60 337 -214 372 -459 37 -262 -130 -492 -412 -568 -89 -25 -332 -24 -447
0 -116 25 -356 103 -433 142 -103 52 -233 129 -297 176 -32 24 -101 72 -153
108 -52 35 -142 102 -200 148 -58 45 -110 83 -115 83 -6 0 -23 -37 -39 -82
-47 -136 -146 -417 -176 -503 -16 -44 -115 -329 -221 -634 l-192 -555 29 -23
c199 -161 613 -398 814 -466 256 -86 379 -121 503 -143 426 -76 954 -106 1200
-69 117 18 593 138 651 164 23 10 109 49 191 86 83 36 166 76 185 87 203 120
335 227 523 423 186 194 226 241 307 366 124 192 226 448 286 719 27 123 27
131 26 441 -1 296 -3 325 -27 460 -33 176 -101 384 -166 506 -105 199 -172
292 -314 437 -74 77 -132 142 -127 145 5 3 31 20 58 38 60 39 190 186 261 295
67 102 169 312 223 458 79 216 123 561 108 852 -10 178 -61 442 -113 584 -45
122 -169 379 -235 488 -185 305 -578 640 -965 821 -297 139 -572 219 -860 251
-121 14 -659 27 -750 18z"/>
<path d="M24010 12530 c-440 -37 -647 -80 -975 -202 -303 -113 -522 -226 -800
-416 -185 -127 -259 -195 -552 -511 -133 -143 -167 -187 -269 -348 -165 -262
-313 -571 -387 -808 -107 -346 -123 -415 -171 -735 -22 -141 -26 -217 -32
-520 -10 -515 5 -713 91 -1177 82 -444 259 -846 560 -1268 190 -268 457 -538
672 -683 88 -59 386 -238 453 -272 150 -75 503 -200 683 -241 364 -83 736
-104 1287 -73 277 15 708 87 885 147 181 62 725 315 725 337 0 6 -41 203 -91
438 -49 235 -137 650 -195 922 -58 272 -107 497 -110 499 -3 3 -20 -3 -37 -13
-18 -11 -75 -43 -127 -71 -52 -28 -135 -74 -185 -102 -49 -29 -157 -79 -239
-112 -317 -130 -462 -161 -776 -168 -254 -6 -376 11 -597 86 -218 74 -360 164
-521 330 -296 304 -403 676 -389 1346 8 366 40 586 122 824 82 239 166 385
315 543 148 159 317 265 540 338 321 105 718 93 1010 -31 41 -17 143 -59 225
-94 183 -76 231 -100 415 -208 79 -47 145 -85 146 -84 3 3 231 775 405 1367
131 446 139 476 122 488 -79 59 -425 231 -577 287 -232 86 -580 157 -864 176
-210 14 -638 19 -762 9z"/>
<path d="M31000 11525 l0 -985 790 0 790 0 0 -2615 0 -2615 1070 0 1070 0 0
2615 0 2615 815 0 815 0 0 985 0 985 -2675 0 -2675 0 0 -985z"/>
<path d="M28550 8890 l0 -3590 1045 0 1045 0 0 3590 0 3590 -1045 0 -1045 0 0
-3590z"/>
<path d="M28455 3875 c-178 -33 -328 -137 -416 -289 -94 -164 -94 -388 1 -536
75 -117 183 -182 415 -250 326 -96 365 -121 365 -235 0 -58 -19 -102 -61 -142
-46 -44 -99 -64 -185 -70 -203 -16 -359 79 -398 241 -6 25 -10 28 -39 22 -18
-3 -105 -15 -194 -27 l-163 -22 6 -26 c77 -352 364 -539 794 -518 219 11 375
71 495 192 112 113 165 242 165 400 0 144 -36 248 -113 333 -87 95 -197 146
-476 223 -227 63 -281 101 -281 198 0 65 36 120 102 157 48 26 61 29 148 29
74 -1 105 -5 141 -21 60 -28 112 -83 140 -150 20 -45 28 -54 44 -50 11 3 93
22 183 43 118 27 162 41 162 52 0 29 -80 178 -127 235 -54 67 -161 145 -242
176 -123 47 -322 62 -466 35z"/>
<path d="M29947 3718 c-16 -95 -31 -181 -33 -190 -5 -17 9 -18 199 -18 l204 0
31 183 c18 101 32 186 32 190 0 4 -91 7 -203 7 l-203 0 -27 -172z"/>
<path d="M15980 3854 c0 -3 -67 -408 -150 -898 -82 -491 -150 -896 -150 -899
0 -4 76 -7 169 -7 l169 0 6 28 c3 15 60 353 126 752 67 398 123 726 125 729 3
2 5 -2 5 -10 1 -8 54 -347 118 -754 l117 -740 123 0 123 0 357 739 c196 406
358 734 359 730 2 -5 -53 -339 -120 -741 l-123 -733 213 0 c117 0 213 4 213 8
0 9 287 1732 296 1775 l6 27 -329 0 -329 0 -264 -550 c-144 -303 -264 -549
-265 -548 -2 2 -38 249 -81 550 l-79 548 -317 0 c-175 0 -318 -3 -318 -6z"/>
<path d="M20520 3855 c0 -8 -289 -1745 -296 -1777 l-6 -28 195 0 195 0 6 28
c3 15 15 88 26 162 12 74 23 142 25 150 8 25 276 274 283 262 4 -5 47 -143 97
-306 l90 -296 203 0 203 0 -7 23 c-3 12 -67 208 -140 435 -74 227 -134 419
-134 427 0 7 104 115 232 239 l231 226 -209 0 -210 0 -279 -290 c-154 -159
-283 -290 -286 -290 -3 0 33 234 81 520 l87 520 -194 0 c-106 0 -193 -2 -193
-5z"/>
<path d="M24570 3855 c0 -8 -289 -1746 -296 -1778 l-6 -27 208 2 208 3 147
880 c81 484 148 890 148 903 l1 22 -205 0 c-113 0 -205 -2 -205 -5z"/>
<path d="M25215 3828 c-3 -18 -16 -95 -29 -170 l-23 -138 228 0 229 0 -6 -27
c-3 -16 -58 -346 -123 -735 l-118 -708 209 0 c114 0 208 4 208 8 0 4 54 333
120 731 66 397 120 724 120 727 0 2 103 4 228 4 l229 0 21 123 c12 67 25 143
28 170 l7 47 -661 0 -661 0 -6 -32z"/>
<path d="M35180 3855 c0 -8 -289 -1745 -296 -1777 l-6 -28 195 0 195 0 6 28
c7 32 296 1769 296 1777 0 3 -88 5 -195 5 -107 0 -195 -2 -195 -5z"/>
<path d="M18985 3420 c-76 -11 -162 -38 -229 -72 -86 -43 -191 -153 -235 -246
-19 -39 -32 -74 -28 -78 4 -5 299 -43 338 -44 3 0 15 19 25 43 10 23 38 61 61
84 95 96 285 96 343 1 14 -24 20 -49 19 -93 -2 -107 -3 -109 -94 -117 -492
-46 -696 -131 -796 -334 -32 -64 -34 -75 -34 -169 0 -87 3 -107 26 -156 66
-140 202 -219 379 -219 164 0 302 69 386 194 l34 51 -6 -108 -7 -107 189 0
189 0 2 113 c1 83 15 191 53 417 63 374 72 508 41 592 -63 166 -249 259 -511
256 -52 0 -118 -4 -145 -8z m245 -722 c0 -7 -9 -50 -20 -95 -45 -190 -146
-312 -272 -329 -101 -14 -169 42 -176 146 -2 32 1 74 7 93 14 41 72 102 121
127 93 48 340 90 340 58z"/>
<path d="M22625 3416 c-127 -29 -213 -75 -303 -160 -107 -101 -194 -250 -231
-398 -102 -400 80 -750 429 -824 90 -19 256 -14 340 11 163 49 306 169 381
319 23 47 40 88 38 89 -2 2 -67 14 -144 26 -77 13 -150 25 -162 28 -18 4 -26
-3 -45 -44 -69 -147 -237 -205 -365 -127 -74 45 -103 110 -103 231 l0 93 434
0 c430 0 435 0 441 21 13 41 7 243 -9 313 -47 199 -180 352 -355 407 -85 27
-261 35 -346 15z m269 -273 c60 -41 86 -100 86 -190 l0 -73 -245 0 c-135 0
-245 1 -245 3 1 16 34 105 54 144 30 61 103 127 154 142 64 18 149 7 196 -26z"/>
<path d="M31497 3420 c-92 -24 -191 -101 -261 -205 l-27 -40 6 35 c3 19 12 70
19 113 l13 77 -176 0 -176 0 -108 -652 c-60 -359 -111 -663 -114 -675 l-5 -23
195 0 195 0 6 28 c3 15 33 191 66 392 81 485 90 519 162 587 97 94 233 80 267
-26 13 -41 10 -69 -63 -505 -42 -254 -76 -464 -76 -469 0 -4 84 -6 187 -5
l187 3 63 373 c83 498 101 562 181 634 76 69 178 77 236 19 52 -52 49 -107
-33 -599 -39 -232 -71 -425 -71 -427 0 -3 85 -5 189 -5 188 0 189 0 194 23 13
50 137 809 146 888 31 271 -102 451 -344 467 -153 9 -292 -57 -380 -181 -22
-31 -42 -56 -45 -56 -3 0 -16 23 -30 51 -32 65 -95 129 -157 158 -54 25 -182
36 -246 20z"/>
<path d="M36445 3416 c-127 -29 -213 -75 -303 -160 -107 -101 -194 -250 -231
-398 -102 -400 80 -750 429 -824 90 -19 256 -14 340 11 163 49 306 169 381
319 23 47 40 88 38 89 -2 2 -67 14 -144 26 -77 13 -150 25 -162 28 -18 4 -26
-3 -45 -44 -69 -147 -237 -205 -365 -127 -74 45 -103 110 -103 231 l0 93 434
0 c430 0 435 0 441 21 13 41 7 243 -9 313 -47 199 -180 352 -355 407 -85 27
-261 35 -346 15z m269 -273 c60 -41 86 -100 86 -190 l0 -73 -245 0 c-135 0
-245 1 -245 3 1 16 34 105 54 144 30 61 103 127 154 142 64 18 149 7 196 -26z"/>
<path d="M33953 3396 c-23 -7 -62 -25 -86 -39 -48 -29 -139 -122 -163 -168 -8
-16 -16 -29 -18 -29 -1 0 6 51 15 113 10 61 19 115 19 120 0 4 -80 6 -177 5
l-177 -3 -151 -907 -152 -908 193 0 c193 0 194 0 199 23 3 12 25 146 50 297
25 151 48 288 51 305 l6 29 18 -35 c26 -49 102 -116 166 -146 73 -33 178 -41
264 -19 216 55 390 296 446 616 24 140 16 348 -19 452 -44 136 -118 226 -224
275 -68 31 -195 40 -260 19z m10 -260 c41 -17 81 -64 97 -112 18 -53 6 -286
-19 -394 -54 -239 -117 -335 -225 -347 -95 -11 -177 61 -198 175 -17 92 24
383 73 514 50 135 170 207 272 164z"/>
<path d="M29786 2748 c-59 -359 -110 -663 -113 -675 l-5 -23 204 0 205 0 107
653 c59 358 110 662 113 675 l5 22 -204 0 -203 0 -109 -652z"/>
</g>
</svg>
